<svg width="33" height="32" viewBox="0 0 33 32" fill="none" xmlns="http://www.w3.org/2000/svg">
<g clip-path="url(#clip0_1_87)">
<path d="M12.5 27C12.5 27.3956 12.3827 27.7822 12.1629 28.1111C11.9432 28.44 11.6308 28.6964 11.2654 28.8478C10.8999 28.9991 10.4978 29.0387 10.1098 28.9616C9.72186 28.8844 9.36549 28.6939 9.08579 28.4142C8.80608 28.1345 8.6156 27.7781 8.53843 27.3902C8.46126 27.0022 8.50087 26.6001 8.65224 26.2346C8.80362 25.8692 9.05996 25.5568 9.38886 25.3371C9.71776 25.1173 10.1044 25 10.5 25C11.0304 25 11.5391 25.2107 11.9142 25.5858C12.2893 25.9609 12.5 26.4696 12.5 27ZM23.5 25C23.1044 25 22.7178 25.1173 22.3889 25.3371C22.06 25.5568 21.8036 25.8692 21.6522 26.2346C21.5009 26.6001 21.4613 27.0022 21.5384 27.3902C21.6156 27.7781 21.8061 28.1345 22.0858 28.4142C22.3655 28.6939 22.7219 28.8844 23.1098 28.9616C23.4978 29.0387 23.8999 28.9991 24.2654 28.8478C24.6308 28.6964 24.9432 28.44 25.1629 28.1111C25.3827 27.7822 25.5 27.3956 25.5 27C25.5 26.4696 25.2893 25.9609 24.9142 25.5858C24.5391 25.2107 24.0304 25 23.5 25ZM29.4562 9.29375L25.89 20.8825C25.7032 21.4968 25.3234 22.0346 24.8068 22.416C24.2903 22.7975 23.6646 23.0022 23.0225 23H11.0087C10.3575 22.9976 9.7245 22.7842 9.20463 22.3919C8.68477 21.9996 8.30598 21.4494 8.125 20.8237L3.6025 5H1.5C1.23478 5 0.98043 4.89464 0.792893 4.70711C0.605357 4.51957 0.5 4.26522 0.5 4C0.5 3.73478 0.605357 3.48043 0.792893 3.29289C0.98043 3.10536 1.23478 3 1.5 3H3.6025C4.03676 3.00144 4.45888 3.14349 4.80567 3.40487C5.15246 3.66626 5.40526 4.03293 5.52625 4.45L6.54 8H28.5C28.6565 7.99994 28.8108 8.03661 28.9505 8.10706C29.0903 8.17751 29.2115 8.27976 29.3045 8.40561C29.3976 8.53145 29.4597 8.67737 29.4861 8.83163C29.5124 8.98588 29.5022 9.14417 29.4562 9.29375ZM27.1462 10H7.11125L10.0475 20.275C10.1072 20.4839 10.2334 20.6676 10.4068 20.7984C10.5802 20.9292 10.7915 21 11.0087 21H23.0225C23.2365 21.0001 23.4448 20.9315 23.617 20.8044C23.7891 20.6773 23.9159 20.4983 23.9788 20.2938L27.1462 10Z" fill="#F39C11"/>
</g>
<defs>
<clipPath id="clip0_1_87">
<rect width="32" height="32" fill="white" transform="translate(0.5)"/>
</clipPath>
</defs>
</svg>
